<svg xmlns="http://www.w3.org/2000/svg" viewBox="0 0 512 512" role="img" aria-labelledby="title desc">
  <title id="title">py-fastcar sticker</title>
  <desc id="desc">OmicVerse repository hex sticker for py-fastcar.</desc>
  <defs>
    <linearGradient id="bg" x1="112" y1="90" x2="398" y2="430" gradientUnits="userSpaceOnUse">
      <stop offset="0" stop-color="#050706"/>
      <stop offset=".58" stop-color="#020403"/>
      <stop offset="1" stop-color="#000000"/>
    </linearGradient>
  </defs>
  <polygon points="256,34 450,146 450,368 256,480 62,368 62,146" fill="#000000" opacity=".34"/>
  <polygon points="256,22 458,139 458,373 256,490 54,373 54,139" fill="url(#bg)" stroke="#0B0F0A" stroke-width="19" stroke-linejoin="round"/>
  <polygon points="256,22 458,139 458,373 256,490 54,373 54,139" fill="none" stroke="#E8FFE0" stroke-width="12" stroke-linejoin="round"/>
  <g opacity=".22" stroke="#3FD36B" stroke-width="2.2">
    <path d="M112 166h288M100 222h312M100 278h312M112 334h288"/>
    <path d="M152 126v236M204 104v274M256 96v286M308 104v274M360 126v236"/>
  </g>
  <g id="motif">
    <path d="M120 300h250" stroke="#FFFFFF" stroke-width="7" stroke-linecap="round"/>
    <path d="M156 300l42-72h118l48 72" fill="none" stroke="#00C7BE" stroke-width="10" stroke-linejoin="round"/>
    <circle cx="198" cy="306" r="22" fill="#32D74B" stroke="#FFFFFF" stroke-width="6"/>
    <circle cx="316" cy="306" r="22" fill="#FFD60A" stroke="#FFFFFF" stroke-width="6"/>
    <path d="M126 214h76M106 246h64M342 188l54 36-54 36" fill="none" stroke="#FF6961" stroke-width="9" stroke-linecap="round" stroke-linejoin="round"/>
  </g>
  <path id="label" d="M306.12,383.38 L310.57,391.08 L305.88,393.79 L294.18,373.53 L298.87,370.82 L300.11,372.97 Q300.34,371.12 301.17,369.83 Q302.00,368.54 303.53,367.66 Q306.25,366.09 309.23,367.24 Q312.22,368.39 314.18,371.78 Q316.14,375.18 315.64,378.34 Q315.15,381.50 312.43,383.07 Q310.90,383.96 309.37,384.03 Q307.83,384.10 306.12,383.38 Z M303.75,372.07 Q302.25,372.94 302.08,374.51 Q301.91,376.09 303.11,378.17 Q304.32,380.26 305.76,380.90 Q307.21,381.54 308.72,380.67 Q310.22,379.80 310.38,378.24 Q310.54,376.68 309.33,374.58 Q308.12,372.48 306.69,371.85 Q305.26,371.20 303.75,372.07 Z M311.47,363.54 L316.16,360.83 L325.86,368.52 L323.46,356.62 L328.15,353.91 L331.26,373.55 Q331.75,376.53 331.07,378.22 Q330.39,379.92 328.36,381.09 L325.65,382.66 L323.87,379.58 L325.34,378.73 Q326.53,378.04 326.85,377.35 Q327.18,376.65 326.91,375.49 L326.81,375.01 L311.47,363.54 Z M333.01,357.84 L341.24,353.08 L343.44,356.90 L335.21,361.65 L333.01,357.84 Z M348.40,334.60 L350.18,337.68 L347.58,339.18 Q346.58,339.76 346.40,340.35 Q346.22,340.93 346.73,341.82 L347.32,342.84 L351.33,340.53 L353.27,343.88 L349.26,346.20 L355.80,357.53 L351.10,360.24 L344.56,348.91 L342.23,350.26 L340.29,346.90 L342.63,345.55 L342.04,344.53 Q340.65,342.13 341.33,340.21 Q342.00,338.29 344.80,336.67 L348.40,334.60 Z M364.96,343.43 Q363.49,344.27 363.04,345.20 Q362.58,346.12 363.15,347.10 Q363.66,347.99 364.55,348.15 Q365.44,348.31 366.50,347.69 Q367.82,346.93 368.18,345.46 Q368.54,343.98 367.71,342.55 L367.40,342.02 L364.96,343.43 Z M371.11,337.52 L375.95,345.89 L371.21,348.62 L369.96,346.45 Q369.79,348.33 368.96,349.63 Q368.13,350.91 366.44,351.89 Q364.16,353.21 361.97,352.70 Q359.77,352.19 358.55,350.06 Q357.06,347.48 358.14,345.25 Q359.22,343.02 363.02,340.82 L365.79,339.22 L365.58,338.86 Q364.93,337.74 363.75,337.74 Q362.58,337.72 360.71,338.80 Q359.21,339.67 358.08,340.72 Q356.96,341.77 356.19,343.02 L354.13,339.44 Q355.42,338.20 356.83,337.13 Q358.25,336.07 359.77,335.19 Q363.74,332.90 366.40,333.44 Q369.07,333.99 371.11,337.52 Z M383.57,322.53 L385.63,326.09 Q383.76,326.33 382.17,326.83 Q380.59,327.32 379.34,328.04 Q378.00,328.81 377.55,329.53 Q377.09,330.23 377.49,330.93 Q377.82,331.49 378.49,331.51 Q379.15,331.53 380.51,330.94 L381.40,330.58 Q385.27,328.95 387.12,329.29 Q388.97,329.61 390.27,331.86 Q391.62,334.20 390.57,336.39 Q389.52,338.56 386.09,340.54 Q384.63,341.39 382.95,342.05 Q381.26,342.72 379.36,343.21 L377.30,339.64 Q379.09,339.51 380.77,339.00 Q382.44,338.49 383.96,337.62 Q385.34,336.82 385.81,336.04 Q386.29,335.26 385.85,334.51 Q385.49,333.88 384.84,333.85 Q384.18,333.82 382.65,334.47 L381.76,334.84 Q378.40,336.26 376.53,335.92 Q374.66,335.59 373.41,333.42 Q372.06,331.09 373.01,329.04 Q373.96,326.99 377.27,325.09 Q378.57,324.33 380.11,323.71 Q381.65,323.08 383.57,322.53 Z M390.53,312.34 L392.94,316.51 L397.78,313.71 L399.72,317.07 L394.87,319.86 L398.47,326.09 Q399.06,327.11 399.67,327.24 Q400.29,327.36 401.50,326.67 L403.91,325.27 L405.85,328.63 L401.82,330.95 Q399.04,332.56 397.21,332.07 Q395.38,331.58 393.78,328.80 L390.18,322.57 L387.85,323.92 L385.91,320.56 L388.25,319.21 L385.84,315.05 L390.53,312.34 Z M412.78,305.66 L414.99,309.49 Q413.65,309.39 412.51,309.63 Q411.36,309.88 410.32,310.47 Q408.36,311.61 407.93,313.38 Q407.49,315.16 408.68,317.22 Q409.87,319.28 411.63,319.80 Q413.39,320.31 415.35,319.18 Q416.45,318.54 417.25,317.64 Q418.05,316.74 418.52,315.61 L420.74,319.46 Q419.87,320.50 418.85,321.35 Q417.84,322.21 416.70,322.87 Q412.73,325.17 409.31,324.42 Q405.89,323.68 403.79,320.05 Q401.69,316.41 402.76,313.08 Q403.83,309.75 407.80,307.46 Q408.95,306.79 410.19,306.35 Q411.42,305.90 412.78,305.66 Z M427.80,307.14 Q426.33,307.99 425.88,308.92 Q425.43,309.84 425.99,310.81 Q426.50,311.70 427.39,311.87 Q428.28,312.02 429.34,311.41 Q430.66,310.65 431.02,309.18 Q431.38,307.70 430.55,306.27 L430.24,305.73 L427.80,307.14 Z M433.95,301.23 L438.79,309.61 L434.06,312.34 L432.80,310.16 Q432.63,312.05 431.80,313.34 Q430.97,314.63 429.28,315.61 Q427.00,316.93 424.81,316.42 Q422.62,315.90 421.39,313.78 Q419.90,311.20 420.98,308.97 Q422.06,306.73 425.86,304.54 L428.63,302.94 L428.42,302.58 Q427.78,301.46 426.60,301.45 Q425.42,301.44 423.56,302.51 Q422.05,303.38 420.93,304.44 Q419.80,305.49 419.04,306.74 L416.97,303.16 Q418.27,301.92 419.68,300.85 Q421.09,299.78 422.61,298.91 Q426.58,296.61 429.25,297.16 Q431.92,297.70 433.95,301.23 Z M447.89,290.11 Q447.11,290.17 446.42,290.39 Q445.73,290.61 445.11,290.96 Q443.31,292.01 443.00,293.73 Q442.69,295.46 443.94,297.62 L447.85,304.38 L443.16,307.09 L434.68,292.41 L439.37,289.70 L440.76,292.11 Q440.83,290.15 441.62,288.81 Q442.42,287.47 444.06,286.52 Q444.29,286.39 444.58,286.25 Q444.86,286.11 445.43,285.87 L447.89,290.11 Z" fill="#FFFFFF"/>
</svg>
